<svg width="512" height="512" viewBox="0 0 512 512" xmlns="http://www.w3.org/2000/svg" role="img" aria-label="Review For MD icon">
  <defs>
    <linearGradient id="paper" x1="104" y1="44" x2="430" y2="472" gradientUnits="userSpaceOnUse">
      <stop offset="0" stop-color="#3fb950"/>
      <stop offset="1" stop-color="#1f883d"/>
    </linearGradient>
    <linearGradient id="fold" x1="316" y1="54" x2="424" y2="168" gradientUnits="userSpaceOnUse">
      <stop offset="0" stop-color="#7ee787"/>
      <stop offset="1" stop-color="#2da44e"/>
    </linearGradient>
    <filter id="shadow" x="56" y="20" width="420" height="488" filterUnits="userSpaceOnUse" color-interpolation-filters="sRGB">
      <feDropShadow dx="0" dy="12" stdDeviation="14" flood-color="#0b3d22" flood-opacity="0.22"/>
    </filter>
  </defs>

  <path
    d="M152 44H312L436 168V421C436 450 414 472 386 472H152C124 472 102 450 102 421V95C102 66 124 44 152 44Z"
    fill="url(#paper)"
    stroke="#0d4d24"
    stroke-width="8"
    stroke-linejoin="round"
    filter="url(#shadow)"
  />
  <path
    d="M312 44V128C312 150 330 168 352 168H436L312 44Z"
    fill="url(#fold)"
  />
  <path
    d="M312 44V128C312 150 330 168 352 168H436"
    fill="none"
    stroke="#0d4d24"
    stroke-width="10"
    stroke-linecap="round"
    stroke-linejoin="round"
    opacity="0.22"
  />

  <path
    d="M156 285V176L222 259L288 176V285"
    fill="none"
    stroke="#ffffff"
    stroke-width="36"
    stroke-linecap="round"
    stroke-linejoin="round"
  />
  <path
    d="M360 174V285"
    fill="none"
    stroke="#ffffff"
    stroke-width="40"
    stroke-linecap="round"
  />
  <path
    d="M314 242L360 288L406 242"
    fill="none"
    stroke="#ffffff"
    stroke-width="40"
    stroke-linecap="round"
    stroke-linejoin="round"
  />
  <path
    d="M166 354H394"
    fill="none"
    stroke="#ffffff"
    stroke-width="34"
    stroke-linecap="round"
    opacity="0.88"
  />
</svg>
